<svg width="16" height="11" viewBox="0 0 16 11" fill="none" xmlns="http://www.w3.org/2000/svg">
<path d="M1.25 6.25H14.75C15.164 6.25 15.5 5.914 15.5 5.5C15.5 5.086 15.164 4.75 14.75 4.75H1.25C0.836 4.75 0.5 5.086 0.5 5.5C0.5 5.914 0.836 6.25 1.25 6.25ZM1.25 1.75H14.75C15.164 1.75 15.5 1.414 15.5 1C15.5 0.586 15.164 0.25 14.75 0.25H1.25C0.836 0.25 0.5 0.586 0.5 1C0.5 1.414 0.836 1.75 1.25 1.75ZM1.25 10.75H14.75C15.164 10.75 15.5 10.414 15.5 10C15.5 9.586 15.164 9.25 14.75 9.25H1.25C0.836 9.25 0.5 9.586 0.5 10C0.5 10.414 0.836 10.75 1.25 10.75Z" fill="white"/>
</svg>
