<svg width="12" height="14" viewBox="0 0 12 14" fill="#4E4E4E" xmlns="http://www.w3.org/2000/svg">
    <path d="M11.8333 5.83333C11.8333 5.04408 11.6764 4.29042 11.3911 3.60267C11.0954 2.88867 10.662 2.24642 10.1247 1.70858C9.58746 1.17133 8.94521 0.737917 8.23063 0.442167C7.54288 0.156917 6.78921 0 5.99996 0C5.21071 0 4.45704 0.156917 3.76929 0.442167C3.05471 0.737917 2.41246 1.17133 1.87521 1.70858C1.33796 2.24583 0.904543 2.88808 0.608793 3.60267C0.323543 4.29042 0.166626 5.04408 0.166626 5.83333C0.166626 6.16525 0.197543 6.49133 0.254126 6.811C0.413959 7.714 0.778543 8.56333 1.23529 9.331C1.73638 10.1727 2.35704 10.9317 2.96721 11.5739C3.47879 12.1123 3.98804 12.5743 4.42321 12.9407C4.73121 13.1997 5.00304 13.412 5.21421 13.5701C5.34371 13.6675 5.45104 13.7445 5.52921 13.7999C5.62079 13.8647 5.67679 13.902 5.67679 13.902C5.86988 14.0286 6.12304 14.0356 6.32371 13.902C6.32371 13.902 6.38029 13.8641 6.47129 13.7999C6.54946 13.7445 6.65621 13.6675 6.78629 13.5701C6.99746 13.412 7.26929 13.1997 7.57729 12.9407C8.01246 12.5743 8.52171 12.1123 9.03329 11.5739C9.64346 10.9317 10.2641 10.1727 10.7652 9.331C11.222 8.56333 11.5865 7.714 11.7464 6.811C11.8024 6.49133 11.8333 6.16525 11.8333 5.83333ZM10.6666 5.83333C10.6666 6.09233 10.6427 6.35075 10.5972 6.608C10.4683 7.33717 10.1673 8.0535 9.76188 8.73483C9.31738 9.4815 8.75621 10.1716 8.18688 10.7707C7.71146 11.2712 7.23488 11.7034 6.82538 12.0482C6.53604 12.2914 6.28113 12.4903 6.08571 12.6373C6.05538 12.6601 6.02679 12.6811 5.99996 12.7015C5.97254 12.6817 5.94396 12.6601 5.91421 12.6373C5.71821 12.4903 5.46329 12.2914 5.17454 12.0482C4.76504 11.7034 4.28904 11.2712 3.81304 10.7707C3.24371 10.1716 2.68254 9.4815 2.23804 8.73483C1.83263 8.0535 1.53163 7.33717 1.40271 6.608C1.35721 6.35075 1.33329 6.09233 1.33329 5.83333C1.33329 5.20042 1.45929 4.59783 1.68621 4.04892C1.92304 3.47842 2.26954 2.96392 2.70004 2.53342C3.13054 2.10292 3.64504 1.75583 4.21554 1.51958C4.76446 1.29267 5.36704 1.16667 5.99996 1.16667C6.63288 1.16667 7.23546 1.29267 7.78438 1.51958C8.35488 1.75583 8.86879 2.10233 9.29988 2.53342C9.73096 2.9645 10.0775 3.47842 10.3137 4.04892C10.5406 4.59783 10.6666 5.20042 10.6666 5.83333ZM8.33329 5.83333C8.33329 5.51833 8.27029 5.21675 8.15654 4.94083C8.03813 4.655 7.86488 4.39833 7.65021 4.18367C7.43554 3.969 7.17829 3.79517 6.89246 3.67675C6.61654 3.563 6.31496 3.5 5.99996 3.5C5.68496 3.5 5.38338 3.563 5.10746 3.67675C4.82163 3.79517 4.56496 3.96842 4.35029 4.18308C4.13563 4.39775 3.96179 4.655 3.84338 4.94083C3.72963 5.21675 3.66663 5.51833 3.66663 5.83333C3.66663 6.14833 3.72963 6.44992 3.84338 6.72583C3.96179 7.01167 4.13504 7.26833 4.34971 7.483C4.56438 7.69767 4.82104 7.87092 5.10688 7.98933C5.38338 8.10367 5.68496 8.16667 5.99996 8.16667C6.31496 8.16667 6.61654 8.10367 6.89246 7.98992C7.17829 7.8715 7.43496 7.69825 7.64963 7.48358C7.86429 7.26892 8.03754 7.01225 8.15596 6.72642C8.27029 6.44992 8.33329 6.14833 8.33329 5.83333ZM7.16663 5.83333C7.16663 5.99258 7.13513 6.1425 7.07854 6.27958C7.01963 6.42192 6.93271 6.55025 6.82479 6.65875C6.71688 6.76725 6.58796 6.85358 6.44563 6.9125C6.30913 6.9685 6.15921 7 5.99996 7C5.84071 7 5.69079 6.9685 5.55371 6.91192C5.41138 6.853 5.28304 6.76608 5.17454 6.65817C5.06604 6.55025 4.97971 6.42133 4.92079 6.279C4.86479 6.1425 4.83329 5.99258 4.83329 5.83333C4.83329 5.67408 4.86479 5.52417 4.92138 5.38708C4.98029 5.24475 5.06721 5.11642 5.17513 5.00792C5.28304 4.89942 5.41196 4.81308 5.55429 4.75417C5.69079 4.69817 5.84071 4.66667 5.99996 4.66667C6.15921 4.66667 6.30913 4.69817 6.44621 4.75475C6.58854 4.81367 6.71688 4.90058 6.82538 5.0085C6.93388 5.11642 7.02021 5.24533 7.07913 5.38767C7.13513 5.52417 7.16663 5.67408 7.16663 5.83333Z"/>
</svg>
