<svg width="14" height="12" viewBox="0 0 14 12" fill="#4E4E4E" xmlns="http://www.w3.org/2000/svg">
    <path d="M1.75004 3.62058L6.66579 7.06167C6.86412 7.19875 7.12954 7.20517 7.33487 7.06167L12.25 3.62058V9.5C12.25 9.57817 12.2343 9.65225 12.2063 9.71992C12.1765 9.79108 12.1328 9.85642 12.078 9.91125C12.0231 9.96608 11.9578 10.0098 11.8866 10.0396C11.819 10.0676 11.7449 10.0833 11.6667 10.0833H2.33337C2.25521 10.0833 2.18112 10.0676 2.11346 10.0396C2.04229 10.0098 1.97696 9.96608 1.92212 9.91125C1.86729 9.85642 1.82354 9.79108 1.79379 9.71992C1.76579 9.65225 1.75004 9.57817 1.75004 9.5V3.62058ZM0.583374 2.507V9.5C0.583374 9.73508 0.630624 9.96083 0.715791 10.1667C0.805041 10.382 0.935707 10.5751 1.09671 10.7367C1.25771 10.8983 1.45137 11.0289 1.66662 11.1176C1.87254 11.2028 2.09829 11.25 2.33337 11.25H11.6667C11.9018 11.25 12.1275 11.2028 12.3335 11.1176C12.5487 11.0283 12.7418 10.8977 12.9034 10.7367C13.065 10.5757 13.1956 10.382 13.2843 10.1667C13.3695 9.96083 13.4167 9.73508 13.4167 9.5V2.5C13.4167 2.4965 13.4167 2.493 13.4167 2.49008C13.4155 2.2585 13.3683 2.03683 13.2843 1.83383C13.195 1.61858 13.0644 1.4255 12.9034 1.26392C12.7424 1.10233 12.5487 0.971667 12.3335 0.883C12.1275 0.79725 11.9018 0.75 11.6667 0.75H2.33337C2.09829 0.75 1.87254 0.79725 1.66662 0.882417C1.45137 0.971667 1.25829 1.10233 1.09671 1.26333C0.935124 1.42433 0.805041 1.618 0.715791 1.83325C0.631791 2.03625 0.584541 2.2585 0.583374 2.49008C0.583374 2.493 0.583374 2.4965 0.583374 2.5V2.507ZM12.1882 2.23983L7.00004 5.87108L1.81187 2.23983C1.83987 2.18442 1.87721 2.13308 1.92154 2.08875C1.97696 2.03333 2.04171 1.98958 2.11346 1.96042C2.18112 1.93242 2.25521 1.91667 2.33337 1.91667H11.6667C11.7449 1.91667 11.819 1.93242 11.8866 1.96042C11.9578 1.99017 12.0231 2.03392 12.078 2.08875C12.1223 2.13308 12.1596 2.18442 12.1876 2.23983H12.1882Z"/>
</svg>
