<svg width="16" height="15" viewBox="0 0 16 15" fill="none" xmlns="http://www.w3.org/2000/svg">
<path d="M11.0308 10.392C11.0052 10.4115 10.9805 10.4332 10.9565 10.4572C10.9325 10.4812 10.9115 10.5052 10.8912 10.5315C10.421 10.9845 9.8675 11.3498 9.25625 11.6033C8.63975 11.8583 7.9625 12 7.25 12C6.5375 12 5.86025 11.8582 5.24225 11.6025C4.60025 11.337 4.022 10.947 3.5375 10.4618C3.053 9.9765 2.663 9.399 2.39675 8.757C2.14175 8.13975 2 7.4625 2 6.75C2 6.0375 2.14175 5.36025 2.3975 4.74225C2.663 4.101 3.053 3.522 3.5375 3.0375C4.022 2.553 4.601 2.163 5.24225 1.8975C5.86025 1.64175 6.5375 1.5 7.25 1.5C7.9625 1.5 8.63975 1.64175 9.25775 1.8975C9.89975 2.163 10.478 2.553 10.9625 3.03825C11.447 3.5235 11.837 4.101 12.1033 4.743C12.3583 5.36025 12.5 6.0375 12.5 6.75C12.5 7.4625 12.3582 8.13975 12.1025 8.75775C11.849 9.369 11.4838 9.9225 11.0308 10.3927V10.392ZM15.2803 13.7197L12.524 10.9635C12.9177 10.4715 13.244 9.92325 13.4885 9.3315C13.8185 8.535 14 7.66275 14 6.75C14 5.83725 13.8185 4.965 13.4885 4.1685C13.1465 3.342 12.6448 2.59875 12.023 1.977C11.4012 1.35525 10.658 0.8535 9.8315 0.5115C9.035 0.1815 8.16275 0 7.25 0C6.33725 0 5.465 0.1815 4.6685 0.5115C3.842 0.8535 3.09875 1.35525 2.477 1.977C1.85525 2.59875 1.3535 3.342 1.0115 4.1685C0.6815 4.965 0.5 5.83725 0.5 6.75C0.5 7.66275 0.6815 8.535 1.0115 9.3315C1.3535 10.158 1.85525 10.9012 2.477 11.523C3.09875 12.1448 3.842 12.6465 4.6685 12.9885C5.465 13.3185 6.33725 13.5 7.25 13.5C8.16275 13.5 9.035 13.3185 9.8315 12.9885C10.4225 12.7433 10.9715 12.417 11.4635 12.024L14.2197 14.7803C14.513 15.0735 14.9878 15.0735 15.2803 14.7803C15.5728 14.487 15.5735 14.0122 15.2803 13.7197Z" fill="white"/>
</svg>
