<svg width="12" height="11" viewBox="0 0 12 11" fill="#4E4E4E" xmlns="http://www.w3.org/2000/svg">
    <path d="M10.0664 1.65852C10.2834 1.87552 10.4459 2.12402 10.5549 2.38802C10.6689 2.66302 10.7259 2.95652 10.7259 3.25052C10.7259 3.54452 10.6684 3.83802 10.5549 4.11302C10.4454 4.37752 10.2829 4.62552 10.0669 4.84152L5.99991 8.90802L1.93341 4.84152C1.71741 4.62552 1.55491 4.37702 1.44541 4.11252C1.33141 3.83752 1.27441 3.54402 1.27441 3.25002C1.27441 2.95602 1.33141 2.66252 1.44541 2.38752C1.55491 2.12302 1.71741 1.87502 1.93341 1.65852C2.14941 1.44202 2.39791 1.28002 2.66241 1.17052C2.93741 1.05652 3.23091 0.999523 3.52491 0.999523C3.81891 0.999523 4.11241 1.05652 4.38741 1.17052C4.65191 1.28002 4.89991 1.44252 5.11641 1.65852L5.64641 2.18852C5.84191 2.38402 6.15841 2.38402 6.35341 2.18852L6.88441 1.65752C7.10041 1.44152 7.34891 1.27902 7.61341 1.16952C7.88841 1.05552 8.18191 0.998523 8.47591 0.998523C8.76991 0.998523 9.06341 1.05602 9.33841 1.16952C9.60291 1.27902 9.85091 1.44152 10.0669 1.65752L10.0664 1.65852ZM10.7734 0.951523C10.4629 0.641024 10.1039 0.405523 9.72041 0.246523C9.32241 0.0815234 8.89891 -0.000976562 8.47541 -0.000976562C8.05191 -0.000976562 7.62841 0.0810235 7.23041 0.246023C6.84691 0.405023 6.48791 0.640023 6.17691 0.950523L5.99991 1.12802L5.82341 0.951523C5.51291 0.641024 5.15391 0.405523 4.76991 0.246523C4.37191 0.0815234 3.94791 -0.000476599 3.52491 -0.000476599C3.10191 -0.000476599 2.67791 0.0815234 2.27991 0.246523C1.89641 0.405523 1.53741 0.640523 1.22641 0.951523C0.915414 1.26252 0.680414 1.62102 0.521414 2.00502C0.356414 2.40302 0.274414 2.82652 0.274414 3.25002C0.274414 3.67352 0.356914 4.09702 0.521414 4.49502C0.680414 4.87852 0.915414 5.23752 1.22641 5.54852L5.64641 9.96852C5.84191 10.164 6.15841 10.164 6.35341 9.96852L10.7734 5.54852C11.0839 5.23802 11.3194 4.87902 11.4784 4.49552C11.6434 4.09752 11.7259 3.67402 11.7259 3.25052C11.7259 2.82702 11.6439 2.40352 11.4789 2.00552C11.3199 1.62202 11.0849 1.26302 10.7734 0.951523Z"/>
</svg>
